<svg width="23" height="23" viewBox="0 0 23 23" fill="none" xmlns="http://www.w3.org/2000/svg">
<path d="M11.5 1.52706C7.72561 1.52705 4.7598 1.1124 2.7865 0.715857C1.65934 0.489351 0.488499 1.6602 0.715006 2.78735C1.11155 4.76065 1.52621 7.72646 1.5262 11.5008C1.5262 15.2752 1.11155 18.241 0.715002 20.2143C0.488496 21.3415 1.65934 22.5123 2.78649 22.2858C4.7598 21.8893 7.72561 21.4746 11.5 21.4746C15.2744 21.4746 18.2402 21.8893 20.2135 22.2858C21.3406 22.5123 22.5115 21.3415 22.285 20.2143C21.8884 18.241 21.4738 15.2752 21.4738 11.5008C21.4738 7.72646 21.8884 4.76065 22.285 2.78735C22.5115 1.6602 21.3406 0.489352 20.2135 0.715858C18.2402 1.1124 15.2744 1.52706 11.5 1.52706Z" fill="#2990FF"/>
<path fill-rule="evenodd" clip-rule="evenodd" d="M11.6136 6.15625C12.5151 6.15625 13.3129 6.31005 14.0029 6.62251C14.7021 6.93443 15.2658 7.37769 15.6891 7.95303C16.1138 8.51969 16.3619 9.19276 16.4372 9.96682L16.4544 10.1439H14.7977L14.7645 10.0263C14.6353 9.56921 14.4278 9.18047 14.1436 8.85703C13.8593 8.53346 13.5055 8.28219 13.0796 8.10392C12.6555 7.9264 12.1678 7.83582 11.6136 7.83582C10.8581 7.83583 10.212 8.0018 9.6693 8.32745L9.6675 8.32857C9.12248 8.64568 8.69619 9.09112 8.38751 9.66863L8.38695 9.66964C8.07924 10.2354 7.92305 10.8893 7.92304 11.6355C7.92304 12.3745 8.05972 13.0148 8.32767 13.5606C8.60438 14.0929 9.00311 14.5111 9.5266 14.8175C10.0587 15.1125 10.7054 15.2637 11.4733 15.2637C12.0683 15.2637 12.5798 15.1629 13.012 14.9666C13.4574 14.7586 13.8154 14.4733 14.0894 14.1113L14.0897 14.1108C14.3068 13.8264 14.4738 13.4974 14.5898 13.1224H11.5615V11.5833H16.8278V16.7716H15.1171V16.6103C15.1171 16.2744 15.1277 15.8922 15.1486 15.464V15.4622L15.1487 15.4604L15.1971 14.783C14.9827 15.2017 14.7147 15.5646 14.3912 15.8699L14.3903 15.8708C13.6182 16.5885 12.6361 16.9432 11.4577 16.9432C10.6411 16.9432 9.89913 16.8213 9.23392 16.5745L9.23313 16.5742C8.57933 16.3277 8.0141 15.9728 7.53975 15.5093C7.06447 15.0448 6.7036 14.4838 6.45668 13.8289L6.45634 13.8281C6.20976 13.1634 6.08765 12.4318 6.08765 11.6355C6.08765 10.8174 6.22054 10.074 6.48924 9.4076C6.75702 8.73307 7.1382 8.15251 7.63327 7.6682C8.12792 7.17391 8.71364 6.79821 9.38851 6.54111C10.064 6.28378 10.8063 6.15626 11.6136 6.15625ZM9.40423 16.464C9.40553 16.4645 9.40686 16.4648 9.40816 16.4653C9.36851 16.4516 9.32913 16.4377 9.29005 16.4232L9.40423 16.464ZM15.4516 13.6347C15.4362 13.8025 15.4203 13.9783 15.4032 14.1619C15.372 14.5986 15.3408 15.0352 15.3097 15.4719C15.3045 15.5784 15.2999 15.6821 15.296 15.7828C15.2924 15.8739 15.2897 15.9627 15.2872 16.0491C15.2924 15.8673 15.2998 15.6749 15.3097 15.4719C15.3408 15.0352 15.372 14.5986 15.4032 14.1619C15.4203 13.9781 15.4363 13.8021 15.4517 13.6341C15.4516 13.6343 15.4516 13.6345 15.4516 13.6347ZM11.1113 15.4137C11.1585 15.4168 11.2061 15.4191 11.2541 15.4209C11.182 15.4182 11.111 15.4142 11.0409 15.4087L11.1113 15.4137ZM14.0773 14.3798C14.0864 14.3695 14.0958 14.3595 14.1048 14.3491L14.1084 14.3447C14.0982 14.3566 14.0876 14.3681 14.0773 14.3798ZM8.26805 13.7865C8.28017 13.8072 8.2926 13.8277 8.3051 13.848C8.28241 13.8111 8.26029 13.7736 8.23886 13.7355L8.26805 13.7865ZM6.63889 9.46778L6.61487 9.52852C6.62274 9.50823 6.63077 9.48792 6.63889 9.46778ZM9.48057 8.25301C9.47259 8.25803 9.46471 8.26321 9.45677 8.26828C9.46526 8.26286 9.47371 8.25737 9.48226 8.252L9.48057 8.25301ZM9.94986 6.5282C9.77769 6.57498 9.60972 6.62952 9.44599 6.69189L9.5696 6.64665C9.69399 6.60279 9.82073 6.56329 9.94986 6.5282ZM11.3205 6.32353C11.2721 6.32548 11.2241 6.32791 11.1763 6.33083C11.2719 6.32498 11.3686 6.3211 11.4663 6.31915L11.3205 6.32353Z" fill="white"/>
</svg>
