<svg width="24" height="24" viewBox="0 0 24 24" fill="none" xmlns="http://www.w3.org/2000/svg">
<path fill-rule="evenodd" clip-rule="evenodd" d="M15.6429 16L16.2417 16.8278C16.7594 17.5435 17.5962 18 18.5336 18C20.2333 18 21.5483 16.5103 21.3375 14.8238L20.563 8.6279C20.3753 7.12661 19.0991 6 17.5862 6H6.41399C4.90102 6 3.62482 7.12661 3.43716 8.6279L2.66267 14.8238C2.45185 16.5103 3.7669 18 5.46656 18C6.40396 18 7.24076 17.5435 7.75848 16.8278L8.35729 16H15.6429ZM14.6212 18C15.5005 19.2154 16.9301 20 18.5336 20C21.4363 20 23.6821 17.456 23.322 14.5757L22.5476 8.37983C22.2348 5.87768 20.1078 4 17.5862 4H6.41399C3.89237 4 1.76537 5.87768 1.4526 8.37983L0.678112 14.5757C0.318082 17.456 2.5639 20 5.46656 20C7.07009 20 8.4997 19.2154 9.37894 18H14.6212Z" fill="white"/>
<path d="M8 8C7.44772 8 7 8.44772 7 9V10H6C5.44772 10 5 10.4477 5 11C5 11.5523 5.44772 12 6 12H7V13C7 13.5523 7.44772 14 8 14C8.55228 14 9 13.5523 9 13V12H10C10.5523 12 11 11.5523 11 11C11 10.4477 10.5523 10 10 10H9V9C9 8.44772 8.55228 8 8 8Z" fill="white"/>
<path d="M18 10C18.5523 10 19 9.55229 19 9C19 8.44771 18.5523 8 18 8C17.4477 8 17 8.44771 17 9C17 9.55229 17.4477 10 18 10Z" fill="white"/>
<path d="M16 14C16.5523 14 17 13.5523 17 13C17 12.4477 16.5523 12 16 12C15.4477 12 15 12.4477 15 13C15 13.5523 15.4477 14 16 14Z" fill="white"/>
</svg>
