<svg width="28" height="28" viewBox="0 0 28 28" fill="none" xmlns="http://www.w3.org/2000/svg">
<rect width="28" height="28" rx="14" fill="#0097EA"/>
<path d="M18.7879 7.76562C20.6393 7.76571 21.7973 9.7695 20.8729 11.3736L14.7582 21.9837C14.6019 22.2548 14.3129 22.4219 14.0001 22.4219C13.7261 22.4219 13.4704 22.2939 13.3062 22.0801L13.2419 21.9837L7.1272 11.3736C6.20278 9.7695 7.36076 7.76571 9.21216 7.76562H18.7879ZM9.21216 9.51562C8.70739 9.51571 8.39161 10.0619 8.64341 10.4993L13.1251 18.2759V9.51562H9.21216ZM14.8751 18.2759L19.3567 10.4993C19.6085 10.0619 19.2927 9.51571 18.7879 9.51562H14.8751V18.2759Z" fill="white"/>
</svg>
