<svg width="36" height="44" viewBox="0 0 36 44" fill="none" xmlns="http://www.w3.org/2000/svg">
<path d="M16.5957 1.33486C17.1095 0.56416 18.2421 0.56416 18.7559 1.33486L24.1133 9.37197C30.6061 11.9379 35.1992 18.2705 35.1992 25.6757C35.1991 35.3537 27.3537 43.199 17.6758 43.1991C7.99769 43.1991 0.151444 35.3538 0.151367 25.6757C0.151367 18.2709 4.74412 11.9382 11.2363 9.37197L16.5957 1.33486Z" fill="white"/>
<path d="M17.129 7.70484C17.3844 7.30672 17.9664 7.30672 18.2218 7.70484L21.4239 12.697L22.0265 12.6228C22.7162 12.5366 23.4004 12.8203 23.8272 13.3689L24.5392 14.2839C24.8001 14.6194 25.1626 14.8616 25.5724 14.9744L26.6905 15.282C27.3607 15.4663 27.8841 15.9897 28.0684 16.6599L28.3761 17.7781C28.4888 18.1878 28.7311 18.5503 29.0665 18.8113L29.9815 19.5232C30.5302 19.95 30.8138 20.6342 30.7276 21.324L30.5841 22.4744C30.5315 22.8961 30.6162 23.3237 30.8263 23.6931L31.3995 24.7009C31.7431 25.3052 31.7431 26.0459 31.3995 26.6502L30.8263 27.658C30.6162 28.0274 30.5314 28.455 30.5841 28.8767L30.7276 30.0271C30.8138 30.7168 30.5302 31.4011 29.9815 31.8279L29.0665 32.5398C28.7311 32.8008 28.4888 33.1633 28.3761 33.573L28.0684 34.6912C27.8841 35.3613 27.3607 35.8848 26.6905 36.0691L25.5724 36.3767C25.1626 36.4895 24.8001 36.7317 24.5392 37.0671L23.8272 37.9822C23.4004 38.5308 22.7162 38.8144 22.0265 38.7283L20.8761 38.5847C20.4543 38.5321 20.0268 38.6168 19.6573 38.8269L18.6495 39.4002C18.0452 39.7437 17.3045 39.7437 16.7003 39.4002L15.6925 38.8269C15.323 38.6169 14.8955 38.5321 14.4737 38.5847L13.3233 38.7283C12.6336 38.8144 11.9493 38.5308 11.5225 37.9822L10.8106 37.0671C10.5497 36.7317 10.1872 36.4895 9.77743 36.3767L8.65927 36.0691C7.98914 35.8847 7.4657 35.3613 7.28134 34.6912L6.97372 33.573C6.86095 33.1632 6.61875 32.8008 6.28329 32.5398L5.36825 31.8279C4.81961 31.4011 4.536 30.7168 4.62216 30.0271L4.76571 28.8767C4.81837 28.455 4.73358 28.0275 4.52353 27.658L3.95028 26.6502C3.60674 26.0459 3.60675 25.3052 3.95028 24.7009L4.52353 23.6931C4.73359 23.3236 4.81835 22.8961 4.76571 22.4744L4.62216 21.324C4.536 20.6342 4.81961 19.95 5.36825 19.5232L6.28329 18.8113C6.61873 18.5503 6.86094 18.1878 6.97372 17.7781L7.28134 16.6599C7.46568 15.9898 7.98913 15.4664 8.65927 15.282L9.77743 14.9744C10.1872 14.8616 10.5497 14.6194 10.8106 14.2839L11.5225 13.3689C11.9493 12.8203 12.6336 12.5366 13.3233 12.6228L13.9249 12.697L17.129 7.70484Z" fill="black"/>
<path d="M16.9531 31.9482H11.958C11.323 31.9482 10.8069 31.4328 10.8066 30.7979V25.6084C10.8066 24.9732 11.3228 24.458 11.958 24.458H16.9531V31.9482ZM23.0322 24.458C23.6672 24.4583 24.1826 24.9733 24.1826 25.6084V30.7979C24.1823 31.4327 23.6671 31.948 23.0322 31.9482H18.0371V24.458H23.0322ZM15.1445 17.1807C16.1136 17.1808 16.9693 17.6598 17.4941 18.3916C18.0191 17.6597 18.8754 17.1807 19.8447 17.1807H20.0254C21.5223 17.181 22.7362 18.3956 22.7363 19.8926C22.7362 20.4426 22.5706 20.9535 22.2891 21.3809H23.0449C23.6727 21.3809 24.1816 21.8898 24.1816 22.5176C24.1816 23.1455 23.6728 23.6543 23.0449 23.6543H11.9443C11.3165 23.6543 10.8066 23.1455 10.8066 22.5176C10.8067 21.8898 11.3165 21.3809 11.9443 21.3809H12.6992C12.4177 20.9535 12.253 20.4426 12.2529 19.8926C12.253 18.3954 13.4667 17.1808 14.9639 17.1807H15.1445ZM14.9639 18.168C14.0112 18.1681 13.2394 18.9399 13.2393 19.8926C13.2394 20.5279 13.5833 21.0815 14.0947 21.3809H16.9521V20.0732C16.9522 19.916 16.967 19.7617 16.9912 19.6113C16.7846 18.7823 16.0375 18.1682 15.1445 18.168H14.9639ZM19.8447 18.168C18.9514 18.168 18.2027 18.7821 17.9961 19.6113C18.0203 19.7618 18.0371 19.916 18.0371 20.0732V21.3809H20.8936C21.4049 21.0815 21.7498 20.5279 21.75 19.8926C21.7499 18.9401 20.9778 18.1683 20.0254 18.168H19.8447Z" fill="white"/>
</svg>
